<svg width="10" height="16" viewBox="0 0 10 16" fill="none" xmlns="http://www.w3.org/2000/svg">
<path d="M2.80153 0.394621L9.12214 6.99552C9.25954 7.13902 9.35664 7.29447 9.41344 7.46188C9.47023 7.6293 9.49908 7.80867 9.5 8C9.5 8.19133 9.47115 8.3707 9.41344 8.53812C9.35573 8.70553 9.25863 8.86099 9.12214 9.00449L2.80153 15.6054C2.54962 15.8685 2.22901 16 1.83969 16C1.45038 16 1.12977 15.8685 0.877863 15.6054C0.625955 15.3423 0.499999 15.0075 0.499999 14.6009C0.499999 14.1943 0.625955 13.8595 0.877863 13.5964L6.23664 8L0.877864 2.40359C0.625956 2.14051 0.5 1.80568 0.5 1.3991C0.5 0.992527 0.625956 0.657701 0.877864 0.394621C1.12977 0.131542 1.45038 2.49954e-07 1.8397 2.83989e-07C2.22901 3.18024e-07 2.54962 0.131543 2.80153 0.394621Z" fill="url(#paint0_linear_35_502)"/>
<defs>
<linearGradient id="paint0_linear_35_502" x1="9.35663" y1="9.18347" x2="0.494246" y2="9.17071" gradientUnits="userSpaceOnUse">
<stop stop-color="#1063AB"/>
<stop offset="0.53125" stop-color="#1B7E92"/>
<stop offset="1" stop-color="#29B5D1"/>
</linearGradient>
</defs>
</svg>
