<svg width="10" height="16" viewBox="0 0 10 16" fill="none" xmlns="http://www.w3.org/2000/svg">
<path d="M7.19847 15.6054L0.877862 9.00448C0.740457 8.86098 0.643358 8.70553 0.586565 8.53812C0.529771 8.3707 0.500916 8.19133 0.5 8C0.5 7.80867 0.528855 7.6293 0.586565 7.46188C0.644274 7.29447 0.741374 7.13901 0.877862 6.99551L7.19847 0.394618C7.45038 0.131539 7.77099 0 8.16031 0C8.54962 0 8.87023 0.131539 9.12214 0.394618C9.37405 0.657697 9.5 0.992526 9.5 1.3991C9.5 1.80568 9.37405 2.14051 9.12214 2.40359L3.76336 8L9.12214 13.5964C9.37405 13.8595 9.5 14.1943 9.5 14.6009C9.5 15.0075 9.37405 15.3423 9.12214 15.6054C8.87023 15.8685 8.54962 16 8.16031 16C7.77099 16 7.45038 15.8685 7.19847 15.6054Z" fill="white"/>
</svg>
